<?xml version="1.0" encoding="UTF-8" standalone="no"?>
<!-- Created with Inkscape (http://www.inkscape.org/) -->

<svg
   width="213.95999mm"
   height="18.34819mm"
   viewBox="0 0 213.95999 18.34819"
   version="1.1"
   id="svg914"
   inkscape:export-filename="ports2.svg"
   inkscape:export-xdpi="96"
   inkscape:export-ydpi="96"
   xmlns:inkscape="http://www.inkscape.org/namespaces/inkscape"
   xmlns:sodipodi="http://sodipodi.sourceforge.net/DTD/sodipodi-0.dtd"
   xmlns="http://www.w3.org/2000/svg"
   xmlns:svg="http://www.w3.org/2000/svg">
  <sodipodi:namedview
     id="namedview916"
     pagecolor="#ffffff"
     bordercolor="#999999"
     borderopacity="1"
     inkscape:showpageshadow="0"
     inkscape:pageopacity="0"
     inkscape:pagecheckerboard="0"
     inkscape:deskcolor="#d1d1d1"
     inkscape:document-units="mm"
     showgrid="false" />
  <defs
     id="defs911" />
  <g
     inkscape:label="Layer 1"
     inkscape:groupmode="layer"
     id="layer1"
     transform="translate(6.0520503,-128.19203)">
    <g
       id="g1735"
       transform="matrix(0,1,1,0,228.33795,115.26202)">
      <path
         d="m 23.0813,-174.109 0.7166,-0.232 0.7401,-0.142 0.752,-0.047 0.752,0.047 0.7401,0.142 0.7166,0.232 0.6818,0.321 0.6362,0.404 0.5806,0.48 0.5158,0.549 0.4429,0.61 0.3629,0.66 0.2774,0.701 0.1874,0.73 0.0945,0.747 v 0.754 l -0.0945,0.747 -0.1874,0.73 -0.2774,0.701 -0.3629,0.66 -0.4429,0.61 -0.5158,0.549 -0.5806,0.48 -0.6362,0.404 -0.6818,0.321 -0.7166,0.232 -0.7401,0.142 -0.752,0.047 -0.752,-0.047 -0.7401,-0.142 -0.7166,-0.232 -0.6818,-0.321 -0.6362,-0.404 -0.5806,-0.48 -0.5158,-0.549 -0.4429,-0.61 -0.363,-0.66 -0.2774,-0.701 -0.1873,-0.73 -0.0945,-0.747 v -0.754 l 0.0945,-0.747 0.1873,-0.73 0.2774,-0.701 0.363,-0.66 0.4429,-0.61 0.5158,-0.549 0.5806,-0.48 0.6362,-0.404 z"
         id="path1696" />
      <path
         d="m 28.8593,-68.928 -0.1569,0.6002 -0.2427,0.5711 -0.3232,0.5296 -0.3969,0.4769 -0.4621,0.4141 -0.5175,0.3423 -0.5618,0.2634 -0.5941,0.1787 -0.6139,0.0904 h -0.6204 l -0.6139,-0.0904 -0.5941,-0.1787 -0.5618,-0.2634 -0.5175,-0.3423 -0.4621,-0.4141 -0.3969,-0.4769 -0.3232,-0.5296 -0.2427,-0.5711 -0.1569,-0.6002 -0.0679,-0.6168 0.0227,-0.62 0.1127,-0.6102 0.2003,-0.5872 0.2837,-0.5518 0.361,-0.5046 0.4307,-0.4467 0.4911,-0.3792 0.5411,-0.3037 0.5795,-0.2216 0.6056,-0.1349 0.6188,-0.0453 0.6188,0.0453 0.6056,0.1349 0.5795,0.2216 0.5411,0.3037 0.4911,0.3792 0.4306,0.4467 0.3611,0.5046 0.2837,0.5518 0.2003,0.5872 0.1127,0.6102 0.0227,0.62 z"
         id="path1694" />
      <path
         d="m 28.8593,-81.828 -0.1569,0.6002 -0.2427,0.5711 -0.3232,0.5296 -0.3969,0.4769 -0.4621,0.4141 -0.5175,0.3423 -0.5618,0.2634 -0.5941,0.1787 -0.6139,0.0904 h -0.6204 l -0.6139,-0.0904 -0.5941,-0.1787 -0.5618,-0.2634 -0.5175,-0.3423 -0.4621,-0.4141 -0.3969,-0.4769 -0.3232,-0.5296 -0.2427,-0.5711 -0.1569,-0.6002 -0.0679,-0.6168 0.0227,-0.62 0.1127,-0.6102 0.2003,-0.5872 0.2837,-0.5518 0.361,-0.5046 0.4307,-0.4467 0.4911,-0.3792 0.5411,-0.3037 0.5795,-0.2216 0.6056,-0.1349 0.6188,-0.0453 0.6188,0.0453 0.6056,0.1349 0.5795,0.2216 0.5411,0.3037 0.4911,0.3792 0.4306,0.4467 0.3611,0.5046 0.2837,0.5518 0.2003,0.5872 0.1127,0.6102 0.0227,0.62 z"
         id="path1692" />
      <path
         d="m 30.79,-203.39 -0.0304,0.347 -0.0902,0.337 -0.1474,0.316 -0.1999,0.286 -0.2465,0.246 -0.2856,0.2 -0.316,0.147 -0.3367,0.091 -0.3473,0.03 v 3.5 l -0.0431,0.548 -0.1282,0.534 -0.2102,0.507 -0.2869,0.468 -0.3567,0.418 -0.4177,0.357 -0.4682,0.287 -0.5074,0.21 -0.5341,0.128 -0.5475,0.043 -0.5475,-0.043 -0.5341,-0.128 -0.5074,-0.21 -0.4683,-0.287 -0.4176,-0.357 -0.3567,-0.418 -0.2869,-0.468 -0.2102,-0.507 -0.1282,-0.534 -0.0431,-0.548 v -3.5 l -0.3473,-0.03 -0.3367,-0.091 -0.316,-0.147 -0.2856,-0.2 -0.2465,-0.246 -0.2,-0.286 -0.1473,-0.316 -0.0902,-0.337 -0.0304,-0.347 v -22 l 0.0304,-0.347 0.0902,-0.337 0.1473,-0.316 0.2,-0.286 0.2465,-0.246 0.2856,-0.2 0.316,-0.147 0.3367,-0.091 0.3473,-0.03 v -3.5 l 0.0431,-0.548 0.1282,-0.534 0.2102,-0.507 0.2869,-0.468 0.3567,-0.418 0.4176,-0.357 0.4683,-0.287 0.5074,-0.21 0.5341,-0.128 0.5475,-0.043 0.5475,0.043 0.5341,0.128 0.5074,0.21 0.4682,0.287 0.4177,0.357 0.3567,0.418 0.2869,0.468 0.2102,0.507 0.1282,0.534 0.0431,0.548 v 3.5 l 0.3473,0.03 0.3367,0.091 0.316,0.147 0.2856,0.2 0.2465,0.246 0.1999,0.286 0.1474,0.316 0.0902,0.337 0.0304,0.347 z"
         id="path1690" />
      <path
         d="m 30.79,-114.53 -0.0304,0.347 -0.0902,0.337 -0.1474,0.316 -0.1999,0.286 -0.2465,0.246 -0.2856,0.2 -0.316,0.147 -0.3367,0.091 -0.3473,0.03 v 3.5 l -0.0431,0.548 -0.1282,0.534 -0.2102,0.507 -0.2869,0.468 -0.3567,0.418 -0.4177,0.357 -0.4682,0.287 -0.5074,0.21 -0.5341,0.128 -0.5475,0.043 -0.5475,-0.043 -0.5341,-0.128 -0.5074,-0.21 -0.4683,-0.287 -0.4176,-0.357 -0.3567,-0.418 -0.2869,-0.468 -0.2102,-0.507 -0.1282,-0.534 -0.0431,-0.548 v -3.5 l -0.3473,-0.03 -0.3367,-0.091 -0.316,-0.147 -0.2856,-0.2 -0.2465,-0.246 -0.2,-0.286 -0.1473,-0.316 -0.0902,-0.337 -0.0304,-0.347 v -36 l 0.0304,-0.347 0.0902,-0.337 0.1473,-0.316 0.2,-0.286 0.2465,-0.246 0.2856,-0.2 0.316,-0.147 0.3367,-0.091 0.3473,-0.03 v -3.5 l 0.0431,-0.548 0.1282,-0.534 0.2102,-0.507 0.2869,-0.468 0.3567,-0.418 0.4176,-0.357 0.4683,-0.287 0.5074,-0.21 0.5341,-0.128 0.5475,-0.043 0.5475,0.043 0.5341,0.128 0.5074,0.21 0.4682,0.287 0.4177,0.357 0.3567,0.418 0.2869,0.468 0.2102,0.507 0.1282,0.534 0.0431,0.548 v 3.5 l 0.3473,0.03 0.3367,0.091 0.316,0.147 0.2856,0.2 0.2465,0.246 0.1999,0.286 0.1474,0.316 0.0902,0.337 0.0304,0.347 z"
         id="path1688" />
      <path
         d="m 31.2782,-96.1533 -0.0945,0.7476 -0.1874,0.7298 -0.2774,0.7006 -0.3629,0.6603 -0.4429,0.6095 -0.5158,0.5493 -0.5806,0.4803 -0.6362,0.4037 -0.6818,0.3209 -0.7166,0.2328 -0.7401,0.1412 -0.752,0.0473 -0.752,-0.0473 -0.7401,-0.1412 -0.7166,-0.2328 -0.6818,-0.3209 -0.6362,-0.4037 -0.5806,-0.4803 -0.5158,-0.5493 -0.4429,-0.6095 -0.363,-0.6603 -0.2774,-0.7006 -0.1873,-0.7298 -0.0945,-0.7476 v -0.7534 l 0.0945,-0.7476 0.1873,-0.7298 0.2774,-0.7006 0.363,-0.6602 0.4429,-0.6101 0.5158,-0.549 0.5806,-0.48 0.6362,-0.404 0.6818,-0.321 0.7166,-0.232 0.7401,-0.142 0.752,-0.047 0.752,0.047 0.7401,0.142 0.7166,0.232 0.6818,0.321 0.6362,0.404 0.5806,0.48 0.5158,0.549 0.4429,0.6101 0.3629,0.6602 0.2774,0.7006 0.1874,0.7298 0.0945,0.7476 z"
         id="path1686" />
      <path
         d="m 20.6669,-181.565 -0.4429,-0.61 -0.363,-0.66 -0.2774,-0.701 -0.1873,-0.73 -0.0945,-0.747 v -0.754 l 0.0945,-0.747 0.1873,-0.73 0.2774,-0.701 0.363,-0.66 0.4429,-0.61 0.5158,-0.549 0.5806,-0.48 0.6362,-0.404 0.6818,-0.321 0.7166,-0.232 0.7401,-0.142 0.752,-0.047 0.752,0.047 0.7401,0.142 0.7166,0.232 0.6818,0.321 0.6362,0.404 0.5806,0.48 0.5158,0.549 0.4429,0.61 0.3629,0.66 0.2774,0.701 0.1874,0.73 0.0945,0.747 v 0.754 l -0.0945,0.747 -0.1874,0.73 -0.2774,0.701 -0.3629,0.66 -0.4429,0.61 -0.5158,0.549 -0.5806,0.48 -0.6362,0.404 -0.6818,0.321 -0.7166,0.232 -0.7401,0.142 -0.752,0.047 -0.752,-0.047 -0.7401,-0.142 -0.7166,-0.232 -0.6818,-0.321 -0.6362,-0.404 -0.5806,-0.48 z"
         id="path1684" />
      <path
         d="m 28.93,-20.43 h -16 v -40 h 16 z"
         id="path1682" />
    </g>
  </g>
</svg>
